<?xml version="1.0" standalone="no"?>
<!DOCTYPE svg PUBLIC "-//W3C//DTD SVG 20010904//EN"
 "http://www.w3.org/TR/2001/REC-SVG-20010904/DTD/svg10.dtd">
<svg version="1.0" xmlns="http://www.w3.org/2000/svg"
 width="700.000000pt" height="700.000000pt" viewBox="0 0 700.000000 700.000000"
 preserveAspectRatio="xMidYMid meet">
<metadata>
Created by potrace 1.11, written by Peter Selinger 2001-2013
</metadata>
<g transform="translate(0.000000,700.000000) scale(0.100000,-0.100000)"
fill="#000000" stroke="none">
<path d="M1920 4911 l0 -420 438 -3 437 -3 66 -32 c115 -57 202 -174 216 -292
l6 -51 -245 0 c-175 0 -271 -4 -334 -15 -264 -46 -472 -153 -660 -340 -232
-230 -348 -494 -361 -820 -24 -601 396 -1125 995 -1242 116 -22 328 -22 445 1
177 34 344 107 495 216 l83 59 78 -57 c136 -101 298 -174 486 -218 58 -14 150
-17 543 -21 l472 -5 0 421 0 420 -438 3 -437 3 -66 32 c-115 57 -202 174 -216
292 l-6 51 244 0 c273 0 378 12 521 60 766 257 1079 1165 633 1835 -183 276
-463 458 -806 526 -93 19 -346 16 -442 -5 -180 -39 -362 -120 -494 -220 l-73
-55 -71 53 c-131 99 -296 174 -479 218 -78 19 -125 21 -557 25 l-473 5 0 -421z
m2503 -442 c83 -28 148 -77 196 -150 48 -71 65 -140 60 -240 -7 -138 -89 -257
-217 -317 -56 -27 -61 -27 -300 -30 l-243 -3 3 238 c3 234 3 239 30 295 85
183 284 270 471 207z m-1345 -1431 c-3 -242 -3 -243 -31 -304 -137 -296 -567
-296 -697 -1 -101 228 40 495 283 536 28 5 141 9 250 10 l198 1 -3 -242z"/>
</g>
</svg>
